<svg width="1026" height="1004" viewBox="0 0 1026 1004" fill="none" xmlns="http://www.w3.org/2000/svg">
<g filter="url(#filter0_dddddd)">
<rect x="46" y="55" width="900" height="900" rx="16" fill="#CFE6E8"/>
</g>
<mask id="mask0" mask-type="alpha" maskUnits="userSpaceOnUse" x="46" y="55" width="900" height="900">
<rect x="46" y="55" width="900" height="900" rx="16" fill="#F0F0F0"/>
</mask>
<g mask="url(#mask0)">
<path opacity="0.75" d="M193.552 126.502C192.034 150.31 182.462 189.724 161.384 176.036C140.306 162.348 174.118 137.842 193.552 126.502Z" fill="#96D5B6"/>
<path opacity="0.83" d="M283.449 96.0101C270.981 119.81 243.078 155.976 227.663 132.238C212.247 108.5 258.259 98.7751 283.449 96.0101Z" fill="#96D5B6"/>
<path opacity="0.96" d="M495.226 122.03C514.999 111.361 551.253 99.3361 550.84 123.001C550.427 146.666 513.982 131.892 495.226 122.03Z" fill="#96D5B6"/>
<path opacity="0.88" d="M691.554 54.9774C691.117 36.453 695.855 5.30877 713.09 14.473C730.326 23.6373 705.823 44.8874 691.554 54.9774Z" fill="#96D5B6"/>
<path opacity="0.76" d="M842.107 142.681C841.923 158.893 836.829 185.983 822.037 177.443C807.245 168.902 829.321 151.068 842.107 142.681Z" fill="#96D5B6"/>
<path opacity="0.8" d="M94.3128 214.303C86.4799 201.446 77.1614 177.607 93.012 177.053C108.863 176.5 100.254 201.407 94.3128 214.303Z" fill="#96D5B6"/>
<path opacity="0.85" d="M296.325 140.139C308.376 116.126 335.643 79.4778 351.471 102.943C367.298 126.409 321.463 136.935 296.325 140.139Z" fill="#96D5B6"/>
<path opacity="0.95" d="M487.609 168.685C504.923 170.093 533.496 177.562 523.263 192.734C513.03 207.906 495.618 182.978 487.609 168.685Z" fill="#96D5B6"/>
<path opacity="0.78" d="M648.521 204.242C662.373 201.461 686.387 200.895 681.788 215.051C677.188 229.207 657.987 213.621 648.521 204.242Z" fill="#96D5B6"/>
<path opacity="0.71" d="M920.829 189.983C923.825 174.049 933.546 148.255 946.63 159.234C959.715 170.213 934.878 183.943 920.829 189.983Z" fill="#96D5B6"/>
<path d="M138.575 356.695C130.369 376.361 110.824 406.864 97.003 389.174C83.1824 371.485 118.864 360.621 138.575 356.695Z" fill="#96D5B6"/>
<path opacity="0.7" d="M184.015 310.887C177.031 291 171.21 255.642 193.077 259.498C214.944 263.354 195.906 294.955 184.015 310.887Z" fill="#96D5B6"/>
<path opacity="0.79" d="M539.096 303.934C547.483 329.216 554.059 374.021 526.514 368.667C498.969 363.313 523.721 323.802 539.096 303.934Z" fill="#96D5B6"/>
<path opacity="0.89" d="M696.882 257.587C677.973 240.169 651.455 205.422 677.213 197.052C702.972 188.683 700.565 233.62 696.882 257.587Z" fill="#96D5B6"/>
<path opacity="0.96" d="M912.845 342.379C926.672 322.373 955.729 292.958 966.961 315.985C978.192 339.013 935.78 342.674 912.845 342.379Z" fill="#96D5B6"/>
<path opacity="0.99" d="M95.4502 431.613C76.2271 431.395 44.1061 425.354 54.2323 407.815C64.3585 390.276 85.5049 416.452 95.4502 431.613Z" fill="#96D5B6"/>
<path opacity="0.7" d="M216.426 391.628C215.086 377.33 217.066 352.996 230.886 359.149C244.706 365.302 226.912 383.055 216.426 391.628Z" fill="#96D5B6"/>
<path opacity="0.76" d="M482.812 398.156C484.679 412.628 483.531 437.41 469.279 431.651C455.026 425.893 472.466 407.233 482.812 398.156Z" fill="#96D5B6"/>
<path opacity="0.88" d="M745.036 418.24C748.667 404.347 758.85 382.157 769.733 392.666C780.615 403.175 757.822 413.772 745.036 418.24Z" fill="#96D5B6"/>
<path opacity="0.75" d="M848.967 406.057C833.096 416.905 803.319 430.381 801.554 410.205C799.789 390.03 832.125 399.343 848.967 406.057Z" fill="#96D5B6"/>
<path opacity="0.8" d="M31.8251 576.252C7.89877 573.463 -31.3375 561.728 -16.4216 541.198C-1.50575 520.668 21.4175 556.056 31.8251 576.252Z" fill="#96D5B6"/>
<path opacity="0.92" d="M272.778 492.446C271.159 508.811 263.617 535.733 249.426 525.796C235.234 515.86 259.117 499.791 272.778 492.446Z" fill="#96D5B6"/>
<path opacity="0.74" d="M425.351 491.038C451.537 498.869 493.066 519.711 472.355 539.712C451.643 559.713 433.002 515.655 425.351 491.038Z" fill="#96D5B6"/>
<path opacity="0.93" d="M568.133 477.165C550.45 467.504 523.694 446.107 541.697 434.858C559.699 423.609 566.39 458.24 568.133 477.165Z" fill="#96D5B6"/>
<path opacity="0.78" d="M775.483 485.884C793.711 482.555 825.213 482.363 818.858 500.82C812.503 519.276 787.681 498.4 775.483 485.884Z" fill="#96D5B6"/>
<path opacity="0.92" d="M127.403 651.323C121.6 631.542 117.724 596.711 138.883 601.596C160.043 606.481 139.832 636.371 127.403 651.323Z" fill="#96D5B6"/>
<path opacity="0.98" d="M362.235 631.082C383.538 637.452 417.325 654.409 400.475 670.681C383.625 686.953 368.459 651.109 362.235 631.082Z" fill="#96D5B6"/>
<path opacity="0.75" d="M516.066 586.193C529.042 571.08 555.23 549.607 562.407 569.326C569.584 589.045 534.724 588.396 516.066 586.193Z" fill="#96D5B6"/>
<path opacity="0.98" d="M599.112 572.382C603.915 554.007 617.382 524.659 631.775 538.558C646.168 552.457 616.022 566.472 599.112 572.382Z" fill="#96D5B6"/>
<path opacity="0.97" d="M915.227 586.92C933.28 569.271 968.717 545.053 975.601 570.743C982.485 596.433 938.541 591.763 915.227 586.92Z" fill="#96D5B6"/>
<path opacity="0.85" d="M334.093 761.226C355.906 769.015 390.128 788.495 371.713 804.503C353.298 820.512 339.475 782.399 334.093 761.226Z" fill="#96D5B6"/>
<path opacity="0.92" d="M424.346 703.638C411.98 687.435 396.06 656.656 417.323 653.667C438.587 650.679 430.521 685.432 424.346 703.638Z" fill="#96D5B6"/>
<path opacity="0.74" d="M741.679 788.682C735.563 801.419 721.563 820.938 713.026 808.745C704.489 796.553 728.492 790.598 741.679 788.682Z" fill="#96D5B6"/>
<path opacity="0.96" d="M796.142 770.727C813.941 759.012 847.202 744.653 848.768 767.047C850.334 789.44 814.678 778.494 796.142 770.727Z" fill="#96D5B6"/>
<path opacity="0.71" d="M137.481 872.651C118.887 870.154 88.492 860.483 100.386 844.698C112.281 828.914 129.651 856.783 137.481 872.651Z" fill="#96D5B6"/>
<path opacity="0.9" d="M283.551 876.771C260.21 890.99 216.933 907.907 215.928 879.132C214.923 850.357 260.138 865.984 283.551 876.771Z" fill="#96D5B6"/>
<path opacity="0.82" d="M380.504 867.953C397.232 851.6 430.068 829.159 436.447 852.964C442.825 876.768 402.107 872.441 380.504 867.953Z" fill="#96D5B6"/>
<path opacity="0.91" d="M592.789 866.16C572.274 851.446 542.269 820.753 566.374 809.513C590.479 798.273 593.51 842.36 592.789 866.16Z" fill="#96D5B6"/>
<path opacity="0.82" d="M841.369 833.505C851.772 818.452 873.634 796.321 882.085 813.646C890.535 830.971 858.625 833.726 841.369 833.505Z" fill="#96D5B6"/>
<path opacity="0.87" d="M23.4739 908.942C33.4901 930.083 44.0182 968.436 19.4339 966.717C-5.15053 964.998 12.1974 927.907 23.4739 908.942Z" fill="#96D5B6"/>
<path opacity="0.7" d="M290.487 956.026C293.313 975.275 292.36 1008.34 273.225 1000.99C254.09 993.649 276.907 968.367 290.487 956.026Z" fill="#96D5B6"/>
<path opacity="0.73" d="M695.992 925.874C703.154 941.7 710.474 970.312 692.243 968.717C674.013 967.122 687.373 939.809 695.992 925.874Z" fill="#96D5B6"/>
<path opacity="0.93" d="M945.841 927.888C957.386 909.157 982.248 881.204 993.486 901.478C1004.72 921.752 966.578 927.069 945.841 927.888Z" fill="#96D5B6"/>
<ellipse cx="490.5" cy="1011.5" rx="386.5" ry="289.5" fill="#132A13"/>
<g opacity="0.25">
<g opacity="0.74">
<circle cx="258.188" cy="217.504" r="94.6381" transform="rotate(2.27001 258.188 217.504)" fill="#F5F5F5"/>
<circle cx="364.872" cy="272.708" r="94.6381" transform="rotate(2.27001 364.872 272.708)" fill="#F5F5F5"/>
<circle cx="220.196" cy="310.711" r="115.704" transform="rotate(2.27001 220.196 310.711)" fill="#F5F5F5"/>
</g>
<ellipse cx="757.82" cy="432.734" rx="73.2981" ry="73.2982" transform="rotate(14.3102 757.82 432.734)" fill="#F5F5F5"/>
<ellipse cx="829.712" cy="491.786" rx="73.2981" ry="73.2982" transform="rotate(14.3102 829.712 491.786)" fill="#F5F5F5"/>
<ellipse cx="713.983" cy="497.198" rx="89.6137" ry="89.6137" transform="rotate(14.3102 713.983 497.198)" fill="#F5F5F5"/>
<g opacity="0.8">
<circle cx="749.08" cy="153.295" r="77.9373" transform="rotate(26.0768 749.08 153.295)" fill="#F5F5F5"/>
<circle cx="811.111" cy="230.353" r="77.9373" transform="rotate(26.0768 811.111 230.353)" fill="#F5F5F5"/>
<circle cx="689.471" cy="210.893" r="95.2855" transform="rotate(26.0768 689.471 210.893)" fill="#F5F5F5"/>
</g>
</g>
<path d="M171.637 419.536C63.7098 506.971 166.726 720.093 318.37 720.093C470.015 720.093 511 599.87 511 430.465C511 261.061 365.633 150.401 324.648 93.0219C117.804 233.737 279.565 332.101 171.637 419.536Z" fill="#96D4B6"/>
<path d="M180.038 420.464C77.7706 505.27 175.383 711.987 319.075 711.987C462.766 711.987 501.601 595.378 501.601 431.064C501.601 266.751 363.858 159.418 325.023 103.763C129.028 240.249 282.304 335.657 180.038 420.464Z" fill="#132B13"/>
<rect x="320.55" y="371.72" width="13.6617" height="469.962" fill="white"/>
<rect x="248.336" y="597.206" width="9.56318" height="108.374" transform="rotate(-45 248.336 597.206)" fill="white"/>
<rect x="330.21" y="588.564" width="8.19701" height="95.9316" transform="rotate(-135 330.21 588.564)" fill="white"/>
<rect x="332.468" y="486.004" width="6.83084" height="77.9429" transform="rotate(135 332.468 486.004)" fill="white"/>
<path d="M301.399 412.773C307.787 414.563 317.953 419.444 313.012 424.386C308.07 429.327 303.36 418.714 301.399 412.773Z" fill="#96D5B6"/>
<path d="M289.961 505.24C301.593 508.498 320.106 517.388 311.107 526.386C302.109 535.384 293.531 516.059 289.961 505.24Z" fill="#96D5B6"/>
<path d="M353.791 511.523C351.686 519.038 345.943 530.998 340.13 525.185C334.316 519.372 346.802 513.83 353.791 511.523Z" fill="#96D5B6"/>
<path d="M364.892 429.437C361.059 443.121 350.6 464.901 340.014 454.315C329.427 443.729 352.164 433.637 364.892 429.437Z" fill="#96D5B6"/>
<path d="M296.412 588.137C303.927 590.242 315.887 595.985 310.074 601.799C304.261 607.612 298.719 595.127 296.412 588.137Z" fill="#96D5B6"/>
<path d="M367.624 612.503C363.791 626.188 353.332 647.968 342.746 637.381C332.159 626.795 354.896 616.704 367.624 612.503Z" fill="#96D5B6"/>
<path d="M370.169 817.729C367.672 831.872 359.316 854.814 347.619 845.218C335.922 835.622 357.786 823.217 370.169 817.729Z" fill="#84C5A6"/>
<path d="M318.342 822.844C323.556 836.225 336.235 857.091 345.831 845.394C355.427 833.697 331.56 825.805 318.342 822.844Z" fill="#84C5A6"/>
<path d="M311.163 837.656C322.368 846.638 343.782 858.369 346.244 843.441C348.706 828.513 324.09 833.612 311.163 837.656Z" fill="#84C5A6"/>
<path d="M378.398 831.021C369.164 842.02 350.456 857.71 345.124 843.552C339.792 829.393 364.929 829.581 378.398 831.021Z" fill="#84C5A6"/>
<path d="M339.549 822.087C334.128 835.242 321.169 855.667 311.888 843.897C302.608 832.127 326.4 824.767 339.549 822.087Z" fill="#80BB9F"/>
<path d="M288.312 816.027C290.514 830.084 298.351 852.968 310.121 843.688C321.891 834.407 300.473 821.701 288.312 816.027Z" fill="#80BB9F"/>
<path d="M278.218 828.836C287.153 839.908 305.382 855.807 310.935 841.885C316.488 827.963 291.586 827.668 278.218 828.836Z" fill="#80BB9F"/>
<path d="M344.687 836.697C333.416 845.379 311.98 856.588 309.828 841.754C307.676 826.921 331.96 832.443 344.687 836.697Z" fill="#80BB9F"/>
<path d="M354.143 819.468C351.435 833.335 342.807 855.754 331.472 846.107C320.137 836.46 341.864 824.646 354.143 819.468Z" fill="#96D5B6"/>
<path d="M303.072 823.577C307.962 836.833 320.064 857.584 329.711 846.248C339.358 834.913 316.021 826.725 303.072 823.577Z" fill="#96D5B6"/>
<path d="M295.746 838.02C306.609 847.055 327.465 858.975 330.151 844.334C332.838 829.694 308.534 834.272 295.746 838.02Z" fill="#96D5B6"/>
<path d="M362.001 832.689C352.722 843.345 334.041 858.445 329.048 844.423C324.055 830.401 348.778 831.034 362.001 832.689Z" fill="#96D5B6"/>
</g>
<defs>
<filter id="filter0_dddddd" x="-34" y="0" width="1060" height="1060" filterUnits="userSpaceOnUse" color-interpolation-filters="sRGB">
<feFlood flood-opacity="0" result="BackgroundImageFix"/>
<feColorMatrix in="SourceAlpha" type="matrix" values="0 0 0 0 0 0 0 0 0 0 0 0 0 0 0 0 0 0 127 0" result="hardAlpha"/>
<feOffset dy="0.462963"/>
<feGaussianBlur stdDeviation="1.57407"/>
<feColorMatrix type="matrix" values="0 0 0 0 0 0 0 0 0 0 0 0 0 0 0 0 0 0 0.0168519 0"/>
<feBlend mode="normal" in2="BackgroundImageFix" result="effect1_dropShadow"/>
<feColorMatrix in="SourceAlpha" type="matrix" values="0 0 0 0 0 0 0 0 0 0 0 0 0 0 0 0 0 0 127 0" result="hardAlpha"/>
<feOffset dy="2.03704"/>
<feGaussianBlur stdDeviation="3.25926"/>
<feColorMatrix type="matrix" values="0 0 0 0 0 0 0 0 0 0 0 0 0 0 0 0 0 0 0.0274815 0"/>
<feBlend mode="normal" in2="effect1_dropShadow" result="effect2_dropShadow"/>
<feColorMatrix in="SourceAlpha" type="matrix" values="0 0 0 0 0 0 0 0 0 0 0 0 0 0 0 0 0 0 127 0" result="hardAlpha"/>
<feOffset dy="5"/>
<feGaussianBlur stdDeviation="6.5"/>
<feColorMatrix type="matrix" values="0 0 0 0 0 0 0 0 0 0 0 0 0 0 0 0 0 0 0.035 0"/>
<feBlend mode="normal" in2="effect2_dropShadow" result="effect3_dropShadow"/>
<feColorMatrix in="SourceAlpha" type="matrix" values="0 0 0 0 0 0 0 0 0 0 0 0 0 0 0 0 0 0 127 0" result="hardAlpha"/>
<feOffset dy="9.62963"/>
<feGaussianBlur stdDeviation="12.7407"/>
<feColorMatrix type="matrix" values="0 0 0 0 0 0 0 0 0 0 0 0 0 0 0 0 0 0 0.0425185 0"/>
<feBlend mode="normal" in2="effect3_dropShadow" result="effect4_dropShadow"/>
<feColorMatrix in="SourceAlpha" type="matrix" values="0 0 0 0 0 0 0 0 0 0 0 0 0 0 0 0 0 0 127 0" result="hardAlpha"/>
<feOffset dy="16.2037"/>
<feGaussianBlur stdDeviation="23.4259"/>
<feColorMatrix type="matrix" values="0 0 0 0 0 0 0 0 0 0 0 0 0 0 0 0 0 0 0.0531481 0"/>
<feBlend mode="normal" in2="effect4_dropShadow" result="effect5_dropShadow"/>
<feColorMatrix in="SourceAlpha" type="matrix" values="0 0 0 0 0 0 0 0 0 0 0 0 0 0 0 0 0 0 127 0" result="hardAlpha"/>
<feOffset dy="25"/>
<feGaussianBlur stdDeviation="40"/>
<feColorMatrix type="matrix" values="0 0 0 0 0 0 0 0 0 0 0 0 0 0 0 0 0 0 0.07 0"/>
<feBlend mode="normal" in2="effect5_dropShadow" result="effect6_dropShadow"/>
<feBlend mode="normal" in="SourceGraphic" in2="effect6_dropShadow" result="shape"/>
</filter>
</defs>
</svg>
